<svg xmlns="http://www.w3.org/2000/svg" viewBox="0 0 512 512" width="512" height="512">
  <defs><linearGradient id="gt" x1="0" y1="0" x2="1" y2="1">
    <stop offset="0" stop-color="#fff1f7"/><stop offset="1" stop-color="#f0e6ff"/></linearGradient></defs>
  <rect width="512" height="512" rx="114" fill="url(#gt)"/>
  <!-- panda: bigger, chunkier outline -->
  <g transform="translate(24 6) scale(1.04)">
    <circle cx="316" cy="150" r="52" fill="#2e2338"/><circle cx="424" cy="150" r="52" fill="#2e2338"/>
    <circle cx="370" cy="236" r="112" fill="#fffaf0" stroke="#2e2338" stroke-width="20"/>
    <ellipse cx="332" cy="228" rx="34" ry="39" fill="#2e2338"/>
    <ellipse cx="408" cy="228" rx="34" ry="39" fill="#2e2338"/>
    <circle cx="325" cy="219" r="12" fill="#fff"/><circle cx="401" cy="219" r="12" fill="#fff"/>
    <ellipse cx="306" cy="270" rx="21" ry="13" fill="#ff8fae"/>
  </g>
  <!-- cat: bigger, in front -->
  <g transform="translate(-40 44) scale(1.02)">
    <g fill="#2e2338" stroke="#2e2338" stroke-width="30" stroke-linejoin="round">
      <path d="M136 238 L144 148 L218 190 Z"/><path d="M318 238 L310 148 L236 190 Z"/>
    </g>
    <path d="M152 226 L157 176 L195 198 Z" fill="#ff9db4"/>
    <path d="M302 226 L297 176 L259 198 Z" fill="#ff9db4"/>
    <ellipse cx="227" cy="306" rx="132" ry="120" fill="#2e2338"/>
    <path d="M166 306 Q194 268 222 306" fill="none" stroke="#fffaf0" stroke-width="21" stroke-linecap="round"/>
    <path d="M232 306 Q260 268 288 306" fill="none" stroke="#fffaf0" stroke-width="21" stroke-linecap="round"/>
    <ellipse cx="124" cy="344" rx="29" ry="18" fill="#ff8fae"/><ellipse cx="330" cy="344" rx="29" ry="18" fill="#ff8fae"/>
    <path d="M227 344 c-10-12 -26-6 -26 7 c0 11 16 18 26 26 c10-8 26-15 26-26 c0-13 -16-19 -26-7z" fill="#ff5a7a"/>
  </g>
</svg>
