<svg xmlns="http://www.w3.org/2000/svg" viewBox="0 0 100 100" width="100" height="100">
  <g fill="#2e2338" stroke="#2e2338" stroke-width="8" stroke-linejoin="round">
    <path d="M24 40 L27 15 L48 27 Z"/><path d="M76 40 L73 15 L52 27 Z"/>
  </g>
  <path d="M30 36 L32 22 L42 28 Z" fill="#ff85ad"/><path d="M70 36 L68 22 L58 28 Z" fill="#ff85ad"/>
  <ellipse cx="50" cy="59" rx="39" ry="35" fill="#2e2338"/>
  <path d="M31 59 Q39 48 47 59" fill="none" stroke="#fffaf0" stroke-width="6" stroke-linecap="round"/>
  <path d="M53 59 Q61 48 69 59" fill="none" stroke="#fffaf0" stroke-width="6" stroke-linecap="round"/>
  <ellipse cx="16" cy="70" rx="9" ry="5.5" fill="#ff6b9d"/><ellipse cx="84" cy="70" rx="9" ry="5.5" fill="#ff6b9d"/>
  <path d="M50 70 c-3.2-4 -8.5-2 -8.5 2.3 c0 3.5 5.2 6 8.5 8.5 c3.3-2.5 8.5-5 8.5-8.5 c0-4.3 -5.3-6.3 -8.5-2.3z" fill="#ff2e74"/>
</svg>
